# xmcd
#
# Track frame offsets:
#	182
#	13667
#	24587
#	37202
#	44775
#	52590
#	73190
#	82515
#	95512
#	110130
#	124045
#	134760
#	145717
#	161970
#	173202
#	187777
#	200695
#	214502
#	225487
#	235442
#	248040
#	257792
#	267775
#	280445
#	291077
#
# Disc length: 3989 seconds
#
# Revision: 1
# Processed by: cddbd v1.5.1PL0 Copyright (c) Steve Scherf et al.
# Submitted via: MusicWizard 7.0.2
#
DISCID=740f9319
DTITLE=Lee Hazlewood - The Many Sides Of Lee
DYEAR=1991
DGENRE=Country
TTITLE0=Son Of A Gun
TTITLE1=Run Boy Run
TTITLE2=Long Black Train
TTITLE3=The Railroad
TTITLE4=Six Feet Of Chain
TTITLE5=Jose
TTITLE6=Dark In My Heart
TTITLE7=So Long, Babe
TTITLE8=These Boots Are Made For Walking
TTITLE9=I Move Around
TTITLE10=Home (I'm Home)
TTITLE11=The Girls In Paris
TTITLE12=Sand
TTITLE13=Suzi Jane Is Back In Town
TTITLE14=My Baby Cried All Night Long
TTITLE15=Shades
TTITLE16=When A Fool Loves A Fool
TTITLE17=Muddy, Muddy River
TTITLE18=Mansion Of Tears
TTITLE19=The City Never Sleeps
TTITLE20=Five Feet High And Risin
TTITLE21=Words Mean Nothing
TTITLE22=Della
TTITLE23=Want Me
TTITLE24=Pretty Jane
EXTD=
EXTT0=
EXTT1=
EXTT2=
EXTT3=
EXTT4=
EXTT5=
EXTT6=
EXTT7=
EXTT8=
EXTT9=
EXTT10=
EXTT11=
EXTT12=
EXTT13=
EXTT14=
EXTT15=
EXTT16=
EXTT17=
EXTT18=
EXTT19=
EXTT20=
EXTT21=
EXTT22=
EXTT23=
EXTT24=
PLAYORDER=
